<svg width="160" height="58" viewBox="0 0 160 58" fill="none" xmlns="http://www.w3.org/2000/svg">
<path fill-rule="evenodd" clip-rule="evenodd" d="M32.75 27.3858C35.2057 27.3858 36.9693 26.8681 38.0409 25.8328C39.1125 24.7975 39.6929 23.0775 39.7822 20.6729C39.8715 18.491 39.9162 16.1699 39.9162 13.7096C39.9162 11.2493 39.8715 8.90595 39.7822 6.67946C39.6929 4.29712 39.1125 2.58829 38.0409 1.55298C36.9693 0.517658 35.2057 0 32.75 0C30.2943 0 28.5139 0.517658 27.4088 1.55298C26.3038 2.58829 25.7289 4.29712 25.6843 6.67946C25.6396 8.86142 25.6173 11.1937 25.6173 13.6762L25.6176 14.2059C25.6206 16.4911 25.6428 18.6468 25.6843 20.6729C25.7289 23.0775 26.3038 24.7975 27.4088 25.8328C28.5139 26.8681 30.2943 27.3858 32.75 27.3858ZM5.69278 27.0518V18.8361L4.75515 4.74243H5.62581L7.06574 19.1701L9.10844 27.0518H14.4998L16.576 19.1701L17.9824 4.74243H18.8866L17.9155 18.8361V27.0518H22.9385V0.333984H14.9017L12.658 10.4534L12.2562 22.6434H11.3855L10.9502 10.4534L8.74008 0.333984H0.669759V27.0518H5.69278ZM30.7074 21.6081C30.752 22.7436 31.4329 23.3113 32.7501 23.3113C34.0449 23.3113 34.7146 22.7436 34.7593 21.6081C34.8039 20.4725 34.843 19.2257 34.8765 17.8676C34.91 16.5094 34.9267 15.1123 34.9267 13.6762C34.9267 12.2401 34.91 10.843 34.8765 9.48483C34.843 8.12667 34.8039 6.87984 34.7593 5.74433C34.7146 4.63108 34.0449 4.07446 32.7501 4.07446C31.4329 4.07446 30.752 4.63108 30.7074 5.74433C30.6627 6.87984 30.6292 8.12667 30.6069 9.48483C30.5846 10.843 30.5734 12.2401 30.5734 13.6762C30.5734 15.1123 30.5846 16.5094 30.6069 17.8676C30.6292 19.2257 30.6627 20.4725 30.7074 21.6081ZM49.3931 27.0518C51.9158 27.0518 53.7352 26.5175 54.8515 25.4488C55.9677 24.38 56.5481 22.6211 56.5928 20.172C56.6374 18.6134 56.6653 17.1384 56.6765 15.7468C56.6877 14.3553 56.6877 12.9637 56.6765 11.5722C56.6653 10.1806 56.6374 8.71671 56.5928 7.18043C56.5481 4.7313 55.9677 2.97794 54.8515 1.92036C53.7352 0.862775 51.9158 0.333984 49.3931 0.333984H42.5953V27.0518H49.3931ZM47.6182 22.6434H49.393C50.7995 22.6434 51.525 22.02 51.5697 20.7731C51.7036 16.0307 51.7036 11.2994 51.5697 6.57928C51.525 5.35472 50.7995 4.74243 49.393 4.74243H47.6182V22.6434ZM70.925 27.0518V22.6434H64.3616V15.6634H70.5901V11.2549H64.3616V4.74243H70.925V0.333984H59.3385V27.0518H70.925ZM77.9572 18.0346V27.0518H72.9342V0.333984H79.3972C81.8975 0.333984 83.7002 0.84051 84.8053 1.85356C85.9103 2.86661 86.5075 4.53091 86.5968 6.84646C86.6191 7.46988 86.6359 8.01537 86.647 8.48293C86.6582 8.95049 86.6582 9.41805 86.647 9.88562C86.6359 10.3532 86.6191 10.8987 86.5968 11.5221C86.5522 12.9693 86.3066 14.1549 85.8601 15.0789C85.4136 16.0029 84.7327 16.7098 83.8174 17.1996L86.9652 27.0518H81.6408L79.0958 18.0346H77.9572ZM79.3973 13.6261H77.9574V4.74243H79.3973C80.7814 4.74243 81.507 5.35472 81.574 6.57928C81.6856 8.31594 81.6856 10.0526 81.574 11.7893C81.507 13.0138 80.7814 13.6261 79.3973 13.6261ZM93.3946 16.7989L93.83 27.0518H88.9744V0.333984H96.241L98.2502 8.8503L100.092 22.6434H100.963L100.025 11.7893L99.6232 0.333984H104.479V27.0518H96.8438L94.8346 18.3017L93.4616 4.70903H92.524L93.3946 16.7989ZM5.15697 57.666L5.72625 52.0887H9.61072L10.18 57.666H15.337L11.6199 30.9482H3.71704L0 57.666H5.15697ZM6.19502 47.6802H9.14186L8.5391 41.7689L8.13726 35.3566H7.19963L6.79779 41.7689L6.19502 47.6802ZM22.3692 57.666V48.6488H23.5077L26.0527 57.666H31.3771L28.2294 47.8138C29.1447 47.324 29.8256 46.6171 30.2721 45.6931C30.7186 44.7691 30.9641 43.5835 31.0088 42.1363C31.0311 41.5129 31.0479 40.9674 31.059 40.4998C31.0702 40.0322 31.0702 39.5647 31.059 39.0971C31.0479 38.6296 31.0311 38.0841 31.0088 37.4607C30.9195 35.1451 30.3223 33.4808 29.2172 32.4678C28.1122 31.4547 26.3095 30.9482 23.8091 30.9482H17.3462V57.666H22.3692ZM22.3691 44.2403H23.809C25.1932 44.2403 25.9187 43.628 25.9857 42.4035C26.0973 40.6668 26.0973 38.9301 25.9857 37.1935C25.9187 35.9689 25.1932 35.3566 23.809 35.3566H22.3691V44.2403ZM42.0594 57.666V35.3566H46.3457V30.9482H32.7166V35.3566H37.0364V57.666H42.0594ZM68.1123 56.447C67.0184 57.4823 65.2771 58 62.8884 58C61.214 58 59.869 57.7718 58.8532 57.3153C57.8374 56.8589 57.0951 56.1409 56.6263 55.1612C56.1575 54.1816 55.8896 52.8902 55.8226 51.2871C55.8003 50.352 55.778 49.2889 55.7557 48.0977C55.7333 46.9065 55.7222 45.6708 55.7222 44.3906C55.7222 43.1104 55.7333 41.8802 55.7557 40.7002C55.778 39.5201 55.8003 38.4848 55.8226 37.5942C55.8896 35.9021 56.1631 34.5439 56.6431 33.5198C57.123 32.4956 57.8709 31.7553 58.8867 31.2988C59.9024 30.8424 61.2363 30.6142 62.8884 30.6142C65.2324 30.6142 66.9403 31.1319 68.0118 32.1672C69.0834 33.2025 69.6973 34.9113 69.8536 37.2937C69.8983 37.8058 69.9206 38.418 69.9206 39.1305C69.9206 39.843 69.8983 40.4553 69.8536 40.9674H64.8306C64.8752 40.3439 64.8976 39.5758 64.8976 38.6629C64.8976 37.7501 64.8752 36.982 64.8306 36.3585C64.7636 35.2453 64.1162 34.6887 62.8884 34.6887C61.5935 34.6887 60.9126 35.2453 60.8457 36.3585C60.7564 37.9171 60.695 39.6315 60.6615 41.5017C60.628 43.372 60.628 45.2367 60.6615 47.0958C60.695 48.9549 60.7564 50.6637 60.8457 52.2223C60.9126 53.3578 61.5935 53.9255 62.8884 53.9255C63.5358 53.9255 64.0492 53.7808 64.4287 53.4914C64.8083 53.2019 65.0203 52.7789 65.065 52.2223C65.0873 51.9551 65.1041 51.6155 65.1152 51.2036C65.1264 50.7917 65.1264 50.3743 65.1152 49.9512C65.1041 49.5282 65.0873 49.1942 65.065 48.9493H63.2232V44.6077H69.9541C69.9987 45.6319 70.0155 46.7451 70.0043 47.9474C69.9931 49.1497 69.9652 50.263 69.9206 51.2871C69.809 53.6917 69.2062 55.4117 68.1123 56.447ZM76.5174 57.666L77.0866 52.0887H80.9711L81.5404 57.666H86.6974L82.9803 30.9482H75.0774L71.3604 57.666H76.5174ZM77.5554 47.6802H80.5023L79.8995 41.7689L79.4977 35.3566H78.56L78.1582 41.7689L77.5554 47.6802ZM100.326 57.666V53.2576H93.7296V30.9482H88.7066V57.666H100.326ZM113.956 53.2576V57.666H102.336V30.9482H107.359V53.2576H113.956ZM127.551 57.666V53.2576H120.988V46.2775H127.216V41.8691H120.988V35.3566H127.551V30.9482H115.965V57.666H127.551ZM134.583 48.6488V57.666H129.56V30.9482H136.023C138.524 30.9482 140.326 31.4547 141.431 32.4678C142.537 33.4808 143.134 35.1451 143.223 37.4607C143.245 38.0841 143.262 38.6296 143.273 39.0971C143.284 39.5647 143.284 40.0322 143.273 40.4998C143.262 40.9674 143.245 41.5129 143.223 42.1363C143.178 43.5835 142.933 44.7691 142.486 45.6931C142.04 46.6171 141.359 47.324 140.444 47.8138L143.591 57.666H138.267L135.722 48.6488H134.583ZM136.024 44.2403H134.584V35.3566H136.024C137.408 35.3566 138.133 35.9689 138.2 37.1935C138.312 38.9301 138.312 40.6668 138.2 42.4035C138.133 43.628 137.408 44.2403 136.024 44.2403ZM154.977 51.2871V57.666H149.954V51.2871L149.585 49.7843L144.931 30.9482H150.054L151.494 37.4273L151.997 45.2756H152.934L153.436 37.4273L154.876 30.9482H160L155.345 49.7509L154.977 51.2871Z" fill="white"/>
</svg>
